<?xml version="1.0" encoding="utf-8"?>
<!-- Generator: Adobe Illustrator 17.0.0, SVG Export Plug-In . SVG Version: 6.00 Build 0)  -->
<!DOCTYPE svg PUBLIC "-//W3C//DTD SVG 1.1//EN" "http://www.w3.org/Graphics/SVG/1.1/DTD/svg11.dtd">
<svg version="1.1" id="Capa_1" xmlns="http://www.w3.org/2000/svg" xmlns:xlink="http://www.w3.org/1999/xlink" x="0px" y="0px"
	 width="960px" height="560px" viewBox="0 0 960 560" enable-background="new 0 0 960 560" xml:space="preserve">
<g>
	<g>
		<path fill="#995300" d="M296.403,484.018l-45.983,45.976c-4.027,4.033-4.027,10.551,0,14.585c4.033,4.028,10.551,4.028,14.585,0
			l45.976-45.983c4.027-4.028,4.027-10.551,0-14.579C306.961,479.986,300.43,479.986,296.403,484.018z M363.005,327.935
			l-29.486-29.486v-60.77c0-5.696-4.617-10.313-10.313-10.313S312.9,231.984,312.9,237.68v60.764l-29.496,29.486
			c-21.912,21.907-21.907,57.719,0,79.609l32.518,32.53c4.033,4.027,10.551,4.027,14.585,0l32.499-32.53
			C384.841,385.733,385.001,349.926,363.005,327.935z M419.992,336.033c4.027,4.027,10.551,4.027,14.579,0l32.499-32.53
			c21.842-21.811,22.003-57.618,0.012-79.609l-29.491-29.486v-60.764c0-5.696-4.611-10.313-10.313-10.313
			c-5.689,0-10.306,4.617-10.306,10.313v60.764l-29.496,29.486c-21.912,21.907-21.907,57.719,0,79.609L419.992,336.033z
			 M524.027,231.985c4.027,4.027,10.551,4.027,14.579,0l32.499-32.53c21.842-21.811,22.003-57.618,0.012-79.609l-29.491-29.486
			V29.598c0-5.696-4.612-10.313-10.313-10.313c-5.689,0-10.301,4.617-10.301,10.313v60.764l-29.496,29.486
			c-21.912,21.907-21.907,57.719,0,79.609L524.027,231.985z M780.583,14.424c-4.028-4.022-10.551-4.022-14.579,0.005l-42.968,42.968
			l-41.705-0.005c-30.987-0.005-56.308,25.321-56.296,56.289l-0.005,45.995c0,5.696,4.612,10.306,10.307,10.306l45.983-0.017
			c30.873,0.017,56.301-25.184,56.301-56.284l-0.005-41.705l42.968-42.968C784.616,24.987,784.616,18.457,780.583,14.424z
			 M765.402,253.397h-60.763l-29.486-29.496c-21.907-21.912-57.719-21.912-79.609,0l-32.53,32.518
			c-4.021,4.027-4.021,10.551,0,14.579l32.53,32.494c21.818,21.847,57.618,22.008,79.609,0.017l29.486-29.491h60.763
			c5.701,0,10.313-4.612,10.313-10.313C775.721,258.009,771.103,253.397,765.402,253.397z M661.348,357.438h-60.764l-29.486-29.486
			c-21.907-21.919-57.719-21.919-79.609-0.012l-32.53,32.523c-4.022,4.027-4.022,10.551,0,14.579l32.53,32.494
			c21.818,21.847,57.618,22.008,79.609,0.017l29.486-29.496h60.764c5.701,0.012,10.313-4.605,10.313-10.306
			C671.668,362.056,667.056,357.45,661.348,357.438z M557.307,461.486h-60.77L467.052,432
			c-21.907-21.919-57.719-21.919-79.609-0.012l-32.53,32.523c-4.022,4.028-4.022,10.551,0,14.579l32.53,32.494
			c21.818,21.847,57.618,22.008,79.609,0.017l29.486-29.496h60.764c5.701,0.012,10.313-4.605,10.313-10.306
			C567.62,466.103,563.01,461.498,557.307,461.486z"/>
	</g>
</g>
</svg>
