<?xml version="1.0" encoding="utf-8"?>
<!-- Generator: Adobe Illustrator 17.0.0, SVG Export Plug-In . SVG Version: 6.00 Build 0)  -->
<!DOCTYPE svg PUBLIC "-//W3C//DTD SVG 1.1//EN" "http://www.w3.org/Graphics/SVG/1.1/DTD/svg11.dtd">
<svg version="1.1"
	 id="Capa_1" xmlns:dc="http://purl.org/dc/elements/1.1/" xmlns:cc="http://creativecommons.org/ns#" xmlns:sodipodi="http://sodipodi.sourceforge.net/DTD/sodipodi-0.dtd" xmlns:inkscape="http://www.inkscape.org/namespaces/inkscape" xmlns:svg="http://www.w3.org/2000/svg" xmlns:rdf="http://www.w3.org/1999/02/22-rdf-syntax-ns#"
	 xmlns="http://www.w3.org/2000/svg" xmlns:xlink="http://www.w3.org/1999/xlink" x="0px" y="0px" width="960px" height="560px"
	 viewBox="0 0 960 560" enable-background="new 0 0 960 560" xml:space="preserve">
<g transform="translate(0,-952.36218)">
	<path d="M480,998.242c-18.171,0-33.359,12.362-37.66,29.156h-40.089v48.593h155.498v-48.593H517.66
		C513.359,1010.604,498.171,998.242,480,998.242z M324.502,1046.836v379.027h310.996v-379.026h-68.03v29.156
		c0,5.367-4.351,9.718-9.719,9.719H402.251c-5.367,0-9.718-4.351-9.719-9.719v-29.156L324.502,1046.836L324.502,1046.836z
		 M382.814,1110.007h194.372c5.368,0,9.719,4.351,9.719,9.719s-4.351,9.719-9.719,9.719H382.814c-5.368,0-9.719-4.351-9.719-9.719
		S377.446,1110.007,382.814,1110.007z M382.814,1197.474h194.372c5.368,0,9.719,4.351,9.719,9.719s-4.351,9.719-9.719,9.719H382.814
		c-5.368,0-9.719-4.351-9.719-9.719S377.446,1197.474,382.814,1197.474z M382.814,1284.942h194.372c5.368,0,9.719,4.351,9.719,9.719
		s-4.351,9.719-9.719,9.719H382.814c-5.368,0-9.719-4.351-9.719-9.719S377.446,1284.942,382.814,1284.942z M382.814,1372.41h126.342
		c5.368,0,9.719,4.351,9.719,9.719s-4.351,9.719-9.719,9.719H382.814c-5.368,0-9.719-4.351-9.719-9.719
		S377.446,1372.41,382.814,1372.41z"/>
</g>
</svg>
