<?xml version="1.0" encoding="utf-8"?>
<!-- Generator: Adobe Illustrator 17.0.0, SVG Export Plug-In . SVG Version: 6.00 Build 0)  -->
<!DOCTYPE svg PUBLIC "-//W3C//DTD SVG 1.1//EN" "http://www.w3.org/Graphics/SVG/1.1/DTD/svg11.dtd">
<svg version="1.1" id="Capa_1" xmlns="http://www.w3.org/2000/svg" xmlns:xlink="http://www.w3.org/1999/xlink" x="0px" y="0px"
	 width="960px" height="560px" viewBox="0 0 960 560" enable-background="new 0 0 960 560" xml:space="preserve">
<g>
	<g>
		<path fill="#5F8E04" d="M272.215,304.274c-5.987,0.022-11.167,4.628-10.462,11.358
			c11.794,111.736,108.969,197.957,212.529,197.957C468.846,403.785,381.981,314.961,272.215,304.274z M446.12,190.093
			c9.469-12.973,19.97-25.286,31.551-36.725c4.071-4.017,10.599-4.017,14.676,0c11.581,11.439,22.077,23.752,31.546,36.72
			c11.259-15.795,23.812-30.476,37.773-43.705c-14.272-44.426-38.019-85.719-69.4-120.872c-4.071-4.006-10.13-4.339-14.512,0
			c-31.387,35.159-55.134,76.457-69.395,120.878C422.303,159.617,434.866,174.304,446.12,190.093z M391.27,326.422
			c5.616-42.014,20.134-82.177,42.417-117.969c-0.005-0.011-0.033-0.022-0.044-0.044c-27.092-40.316-64.096-72.511-107.681-94.304
			c-6.282-2.642-11.565,1.375-13.339,5.196c-18.349,55.232-18.906,114.76-1.25,170.434
			C340.437,297.152,367.398,309.759,391.27,326.422z M559.319,341.469c-5.485-61.896-31.54-120.212-74.312-165.718
			c-42.767,45.507-68.833,103.822-74.307,165.718c34.607,29.69,60.734,68.762,74.296,113.188
			C498.553,410.231,524.706,371.159,559.319,341.469z M536.325,208.453c22.289,35.786,36.796,75.955,42.412,117.969
			c23.867-16.662,50.828-29.27,79.896-36.687c17.656-55.652,17.115-115.163-1.228-170.39c-2.663-5.812-9.114-7.013-13.333-5.25
			c-43.596,21.793-80.605,53.993-107.703,94.315C536.358,208.431,536.336,208.437,536.325,208.453z M697.781,304.285
			C588.016,314.971,501.15,403.796,495.72,513.6c103.566,0,200.73-86.221,212.524-197.957
			C708.948,308.913,703.769,304.307,697.781,304.285z"/>
	</g>
</g>
</svg>
