<svg xmlns="http://www.w3.org/2000/svg" xmlns:xlink="http://www.w3.org/1999/xlink" version="1.1" x="0px" y="0px" viewBox="0 0 100 125" style="enable-background:new 0 0 100 100;" xml:space="preserve"><g><g><path d="M18.5,46.2l0,17c0,3.3,2.7,6,6,6l0,0c3.3,0,6-2.7,6-6l0-17c0-3.3-2.7-6-6-6C21.2,40.3,18.5,42.9,18.5,46.2z M29.4,46.2    l0,17c0,2.7-2.2,5-5,5c-2.7,0-5-2.2-5-5l0-17c0-1.3,0.5-2.6,1.5-3.5c0.9-0.9,2.2-1.5,3.5-1.5C27.2,41.3,29.4,43.5,29.4,46.2z"/><path d="M83.7,62.6c-1.1-1.9-3.1-3-5.2-3c-1,0-2,0.3-3,0.8l0,0c-2.8,1.6-3.8,5.3-2.2,8.1l8.5,14.7c1.1,1.9,3.1,3,5.2,3    c1,0,2-0.3,3-0.8l0,0c2.8-1.6,3.8-5.3,2.2-8.1L83.7,62.6z M89.5,84.6c-0.7,0.4-1.6,0.7-2.5,0.7c-1.8,0-3.4-0.9-4.3-2.5l-8.5-14.7    c-1.4-2.4-0.6-5.4,1.8-6.8c0.7-0.4,1.6-0.7,2.5-0.7c1.8,0,3.4,0.9,4.3,2.5l8.5,14.7C92.7,80.2,91.8,83.2,89.5,84.6z"/><path d="M59.2,82.8l-17,0c-3.3,0-6,2.7-6,6c0,3.3,2.7,6,6,6l17,0c3.3,0,6-2.7,6-6l0,0C65.2,85.5,62.5,82.8,59.2,82.8z"/><path d="M29.2,81.1l-16.9-1.6c-3.3-0.3-6.2,2.1-6.5,5.4c-0.3,3.3,2.1,6.2,5.4,6.5L28.1,93c3.3,0.3,6.2-2.1,6.5-5.4    C34.9,84.3,32.5,81.4,29.2,81.1z"/><path d="M70.3,51.6l-15.6-6.7c-0.8-0.3-1.6-0.5-2.3-0.5c-2.3,0-4.5,1.4-5.5,3.6c-1.3,3,0.1,6.5,3.1,7.8l15.6,6.7    c0.8,0.3,1.6,0.5,2.3,0.5c2.3,0,4.5-1.4,5.5-3.6C74.7,56.5,73.3,52.9,70.3,51.6z M72.5,59.1c-0.8,1.8-2.6,3-4.6,3    c-0.7,0-1.3-0.1-1.9-0.4L50.4,55c-1.2-0.5-2.2-1.5-2.6-2.7c-0.5-1.2-0.5-2.6,0-3.8c0.8-1.8,2.6-3,4.6-3c0.7,0,1.3,0.1,1.9,0.4    l15.6,6.7c1.2,0.5,2.2,1.5,2.6,2.7C73.1,56.5,73,57.9,72.5,59.1z"/><path d="M14.3,36.6c1.1,1.9,3.1,3,5.2,3c1,0,2-0.3,3-0.8c2.8-1.6,3.8-5.3,2.2-8.1l-8.5-14.7c-1.1-1.9-3.1-3-5.2-3    c-1,0-2,0.3-3,0.8c-2.8,1.6-3.8,5.3-2.2,8.1L14.3,36.6z M8.5,14.6c0.7-0.4,1.6-0.7,2.5-0.7c1.8,0,3.4,0.9,4.3,2.5l8.5,14.7    c1.4,2.4,0.6,5.4-1.8,6.8c-0.7,0.4-1.6,0.7-2.5,0.7c-1.8,0-3.4-0.9-4.3-2.5L6.7,21.4C5.3,19,6.1,15.9,8.5,14.6z"/><path d="M94.2,9.9c-1.6-2.8-5.3-3.8-8.1-2.2l-14.7,8.5c-2.8,1.6-3.8,5.3-2.2,8.1c1.6,2.8,5.3,3.8,8.1,2.2L92,18    C94.9,16.4,95.8,12.7,94.2,9.9z"/><path d="M39.4,31.7c0.7,3.2,3.9,5.2,7.1,4.5l16.6-3.6c3.2-0.7,5.2-3.9,4.5-7.1l0,0c-0.7-3.2-3.9-5.2-7.1-4.5L44,24.6    C40.8,25.3,38.7,28.5,39.4,31.7L39.4,31.7z"/></g></g><text x="0" y="115" fill="#000000" font-size="5px" font-weight="bold" font-family="'Helvetica Neue', Helvetica, Arial-Unicode, Arial, Sans-serif">Created by Viktor Vorobyev</text><text x="0" y="120" fill="#000000" font-size="5px" font-weight="bold" font-family="'Helvetica Neue', Helvetica, Arial-Unicode, Arial, Sans-serif">from the Noun Project</text></svg>