<?xml version="1.0" encoding="utf-8"?>
<!-- Generator: Adobe Illustrator 17.0.0, SVG Export Plug-In . SVG Version: 6.00 Build 0)  -->
<!DOCTYPE svg PUBLIC "-//W3C//DTD SVG 1.1//EN" "http://www.w3.org/Graphics/SVG/1.1/DTD/svg11.dtd">
<svg version="1.1" id="Capa_1" xmlns="http://www.w3.org/2000/svg" xmlns:xlink="http://www.w3.org/1999/xlink" x="0px" y="0px"
	 width="960px" height="560px" viewBox="0 0 960 560" enable-background="new 0 0 960 560" xml:space="preserve">
<path fill="#EAA906" d="M705.522,141.514c-7.18-6.173-17.983-5.365-24.162,1.799l-1.846,2.138l-23.64-23.63l3.134-3.128
	c6.684-6.674,6.684-17.524,0-24.214c-6.69-6.705-17.524-6.705-24.229,0l-3.113,3.128l-23.64-23.645l2.148-1.846
	c7.18-6.173,7.957-16.992,1.788-24.146c-6.173-7.174-16.982-7.972-24.146-1.799L406.042,202.763
	c-7.174,6.173-7.972,16.982-1.804,24.162c6.179,7.154,16.982,7.962,24.146,1.788l7.795-6.705l35.549,35.538L240.55,488.729
	c-6.7,6.7-6.7,17.524,0,24.224c6.69,6.705,17.524,6.705,24.219,0l231.177-231.198l35.538,35.554l-6.705,7.779
	c-6.173,7.174-5.36,17.983,1.804,24.156s17.983,5.36,24.162-1.804l156.565-181.775C713.494,158.512,712.702,147.688,705.522,141.514
	z M669.916,156.609l-59.606,69.184l-29.198-29.198l64.393-64.393L669.916,156.609z M621.29,107.988l-64.408,64.393l-29.188-29.203
	l69.184-59.601L621.29,107.988z M447.352,212.388l69.174-59.601l29.986,29.98l-64.393,64.387L447.352,212.388z M541.104,306.146
	l-34.772-34.772l64.393-64.393l29.98,29.98L541.104,306.146z"/>
</svg>
