<?xml version="1.0" encoding="utf-8"?>
<!-- Generator: Adobe Illustrator 17.0.0, SVG Export Plug-In . SVG Version: 6.00 Build 0)  -->
<!DOCTYPE svg PUBLIC "-//W3C//DTD SVG 1.1//EN" "http://www.w3.org/Graphics/SVG/1.1/DTD/svg11.dtd">
<svg version="1.1" id="Capa_1" xmlns="http://www.w3.org/2000/svg" xmlns:xlink="http://www.w3.org/1999/xlink" x="0px" y="0px"
	 width="960px" height="560px" viewBox="0 0 960 560" enable-background="new 0 0 960 560" xml:space="preserve">
<path fill="#0088F7" d="M495.044,61.232c-0.302-0.403-0.704-0.704-0.906-1.006l-0.101-0.101c-3.623-3.421-8.553-5.535-13.987-5.535
	c-5.535,0-10.465,2.113-13.987,5.535l-0.101,0.101c-0.302,0.302-0.604,0.604-0.906,1.006c-6.138,6.34-13.887,14.491-22.541,24.252
	c-17.509,19.824-38.843,46.289-58.868,77.283c-33.61,52.126-63.296,116.83-64.503,184.252c0,1.308-0.101,2.717-0.101,4.025
	c0,19.824,3.925,38.742,10.969,56.151c4.126,10.063,9.258,19.522,15.296,28.377c28.679,42.063,78.289,69.837,134.642,69.837
	c88.956,0,161.007-69.132,161.007-154.365C640.956,222.34,535.094,102.088,495.044,61.232z M479.95,449.057
	c-15.899,0-30.893-3.723-44.176-10.164c66.315-14.491,119.145-65.107,136.654-130.315c5.233,12.176,8.252,25.66,8.252,39.849
	C580.579,403.975,535.497,449.057,479.95,449.057z"/>
</svg>
